# xmcd
#
# Track frame offsets:
#	150
#	12915
#	26902
#	42595
#	55611
#	68013
#	84047
#	97918
#	107449
#	128488
#	139592
#	155071
#	171105
#	191240
#	199441
#	210074
#	225221
#	239059
#	253798
#	268935
#	286118
#	321895
#
# Disc length: 4347 seconds
#
# Revision: 0
# Processed by: cddbd v1.5.1PL0 Copyright (c) Steve Scherf et al.
# Submitted via: audiograbber 1.83.01
#
DISCID=2b10f916
DTITLE=Gaither Gospel Series - Church In The Wildwood
DYEAR=2005
DGENRE=Gospel
TTITLE0=Keep on the sunny side
TTITLE1=Lord, lead me on
TTITLE2=That old-time preacher man
TTITLE3=Heavenly sunlight
TTITLE4=Everybody ought to know
TTITLE5=On the Jericho road
TTITLE6=Farther along
TTITLE7=Revive us again
TTITLE8=We'll soon be done with troubles and trials
TTITLE9=The church in the wildwood
TTITLE10=Jonah and the whale
TTITLE11=When the roll is called up yonder
TTITLE12=Take my hand, precious Lord/Just a closer walk with you
TTITLE13=On Jordan's stormy banks I stand
TTITLE14=Great homecoming
TTITLE15=God on the mountain
TTITLE16=Will there be any stars?
TTITLE17=Wonderfull words of life
TTITLE18=Someone to care
TTITLE19=Turn your eyes upon Jesus
TTITLE20=Will the circle be unbroken
TTITLE21=Data Track
EXTD=
EXTT0=
EXTT1=
EXTT2=
EXTT3=
EXTT4=
EXTT5=
EXTT6=
EXTT7=
EXTT8=
EXTT9=
EXTT10=
EXTT11=
EXTT12=
EXTT13=
EXTT14=
EXTT15=
EXTT16=
EXTT17=
EXTT18=
EXTT19=
EXTT20=
EXTT21=
PLAYORDER=
